<?xml version="1.0" standalone="no"?>
<!DOCTYPE svg PUBLIC "-//W3C//DTD SVG 20010904//EN"
 "http://www.w3.org/TR/2001/REC-SVG-20010904/DTD/svg10.dtd">
<svg version="1.0" xmlns="http://www.w3.org/2000/svg"
 width="470.000000pt" height="470.000000pt" viewBox="0 0 470.000000 470.000000"
 preserveAspectRatio="xMidYMid meet">
<metadata>
Created by potrace 1.11, written by Peter Selinger 2001-2013
</metadata>
<g transform="translate(0.000000,470.000000) scale(0.100000,-0.100000)"
fill="#000000" stroke="none">
<path d="M2140 4114 c-107 -17 -200 -38 -200 -45 0 -5 -7 -6 -15 -3 -8 3 -20
2 -27 -2 -7 -5 -22 -10 -33 -11 -70 -11 -315 -115 -425 -181 -144 -87 -257
-171 -336 -252 -43 -44 -78 -85 -77 -90 2 -6 -3 -9 -10 -7 -6 1 -11 -6 -11
-15 1 -10 -3 -16 -10 -15 -6 1 -10 -4 -9 -10 2 -7 -1 -12 -6 -10 -20 5 -134
-159 -207 -301 -51 -97 -96 -211 -88 -224 3 -4 1 -8 -4 -8 -5 0 -12 -10 -15
-22 -3 -13 -15 -54 -27 -93 -29 -98 -31 -122 -28 -660 1 -264 2 -637 2 -830
l1 -350 -44 4 c-24 1 -53 4 -63 6 -10 2 -22 -3 -25 -11 -4 -11 -13 -14 -31 -9
l-25 6 6 -83 c4 -46 7 -266 7 -490 l0 -408 1903 0 1902 0 0 513 0 512 -21 0
c-24 0 -124 100 -124 123 0 8 -11 25 -25 37 -21 20 -23 27 -15 57 13 45 13
261 0 253 -11 -7 -11 -2 -13 147 -1 54 0 98 3 98 4 0 4 16 2 36 -3 23 -1 34 6
30 16 -9 19 13 15 89 -2 39 -4 83 -4 100 0 16 -4 32 -9 35 -14 8 -19 82 -7
110 13 35 16 161 3 184 -8 14 -8 20 2 23 6 3 10 9 6 14 -3 5 2 9 10 9 10 0 16
9 16 25 0 14 -5 25 -11 25 -6 0 -9 9 -6 20 3 11 2 20 -1 20 -4 0 -6 52 -5 115
1 63 -2 115 -7 115 -5 0 -7 9 -5 19 2 11 -4 29 -14 40 -11 13 -16 30 -13 46 2
14 0 25 -5 25 -5 0 -8 27 -7 60 0 37 -3 57 -9 53 -6 -3 -7 -1 -4 5 8 12 -2 44
-12 38 -8 -5 -6 52 2 60 3 4 -5 26 -18 51 -14 24 -25 51 -25 59 0 8 -4 13 -9
10 -8 -5 -31 42 -30 61 1 3 -3 9 -8 12 -4 3 -17 22 -27 41 -50 90 -195 276
-197 253 0 -4 -3 -1 -7 8 -14 33 -118 141 -179 186 -35 25 -63 50 -63 55 0 4
-5 8 -10 8 -6 0 -34 17 -63 38 -60 42 -63 44 -172 99 -116 59 -167 81 -195 87
-14 2 -65 16 -115 31 -86 25 -188 48 -265 59 -19 3 -57 10 -85 15 -48 9 -334
13 -385 5z"/>
<path d="M4061 1624 c0 -11 3 -14 6 -6 3 7 2 16 -1 19 -3 4 -6 -2 -5 -13z"/>
<path d="M4062 1570 c0 -19 2 -27 5 -17 2 9 2 25 0 35 -3 9 -5 1 -5 -18z"/>
<path d="M475 1060 c-8 -13 25 -13 45 0 12 8 9 10 -12 10 -15 0 -30 -4 -33
-10z"/>
</g>
</svg>
